Coordinates
version=1
nRows=36
nColumns=30
inDegrees=yes

Units are S.I. units (second, meters, Newtons, ...)
Angles are in degrees.

endheader
time	floatyaw	floatroll	floatpitch	floatx	floaty	floatz	pro_sup_l	deviation_l	flexion_l	cmc_flexion_l	cmc_abduction_l	mp_flexion_l	ip_flexion_l	2mcp_flexion_l	2mcp_abduction_l	2pm_flexion_l	2md_flexion_l	3mcp_flexion_l	3mcp_abduction_l	3pm_flexion_l	3md_flexion_l	4mcp_flexion_l	4mcp_abduction_l	4pm_flexion_l	4md_flexion_l	5mcp_flexion_l	5mcp_abduction_l	5pm_flexion_l	5md_flexion_l
-0.495000	-0.845308	-4.283240	94.249796	0.006949	-0.260045	0.015693	87.225764	1.264485	-1.075771	17.894242	10.300813	-16.600223	-25.373035	26.397929	5.944552	28.373731	19.873174	14.856543	4.709350	32.811549	22.671882	2.846141	-3.625906	52.062363	34.524794	-9.726379	-8.744468	57.249218	47.903670
-0.485000	-0.845308	-4.283240	94.249796	0.009014	-0.258436	0.018566	86.719431	1.740650	-1.006135	16.337624	11.792207	-16.346056	-24.148085	27.461598	6.054041	27.756087	19.728860	16.019158	4.898459	32.378487	22.873712	3.761484	-3.713070	52.173778	34.671453	-7.413428	-8.609658	56.172691	47.439320
-0.475000	-0.845308	-4.283240	94.249796	0.011358	-0.256559	0.021845	86.160455	2.299619	-0.874229	14.637287	13.389046	-16.116136	-22.896739	28.760680	6.180170	26.960361	19.474543	17.410554	5.111899	31.817120	23.043186	4.816005	-3.803837	52.183646	34.931088	-4.954028	-8.464894	54.801037	46.952796
-0.465000	-0.845308	-4.283240	94.249796	0.014010	-0.254437	0.025470	85.583832	2.954758	-0.675975	12.866277	14.964088	-15.901876	-21.657343	30.290777	6.317287	25.996791	19.105891	19.011331	5.338892	31.117163	23.186555	5.985260	-3.891111	52.057781	35.408367	-2.437215	-8.323444	53.321765	46.544066
-0.455000	-0.845308	-4.283240	94.249796	0.016996	-0.252119	0.029365	85.037484	3.715327	-0.419342	11.107134	16.410333	-15.684867	-20.465594	31.984018	6.465555	24.939122	18.648677	20.769392	5.567199	30.302262	23.312803	7.242368	-3.966242	51.798599	36.173514	0.044591	-8.201793	51.978393	46.308670
-0.445000	-0.845308	-4.283240	94.249796	0.020333	-0.249676	0.033466	84.578481	4.579642	-0.122884	9.432396	17.669150	-15.447393	-19.349746	33.740509	6.631535	23.893533	18.143654	22.617836	5.785533	29.422254	23.425947	8.552073	-4.023283	51.456914	37.231480	2.396121	-8.111021	51.003693	46.317784
-0.435000	-0.845308	-4.283240	94.249796	0.024021	-0.247182	0.037740	84.264144	5.532394	0.189583	7.888702	18.736671	-15.181279	-18.326930	35.469609	6.824465	22.953767	17.628059	24.493915	5.985231	28.534543	23.524116	9.863730	-4.062008	51.125037	38.518042	4.527903	-8.050653	50.553813	46.604273
-0.425000	-0.845308	-4.283240	94.249796	0.028038	-0.244712	0.042183	84.140020	6.548853	0.495016	6.493553	19.650860	-14.891779	-17.405554	37.115897	7.051143	22.171706	17.126817	26.347404	6.162079	27.689418	23.607469	11.111747	-4.088240	50.914417	39.929383	6.372408	-8.010826	50.679493	47.156668
-0.415000	-0.845308	-4.283240	94.249796	0.032352	-0.242344	0.046811	84.230291	7.603014	0.776500	5.244398	20.469464	-14.595724	-16.592226	38.659560	7.312835	21.556516	16.656017	28.137878	6.317883	26.925435	23.687569	12.228539	-4.111191	50.925047	41.370291	7.899165	-7.982872	51.344320	47.923645
-0.405000	-0.845308	-4.283240	94.249796	0.036932	-0.240149	0.051639	84.534842	8.673303	1.028385	4.130866	21.248838	-14.314787	-15.895478	40.099212	7.605564	21.093153	16.230341	29.829476	6.459997	26.269930	23.788028	13.166948	-4.138958	51.213818	42.791239	9.120144	-7.971403	52.465709	48.828738
-0.395000	-0.845308	-4.283240	94.249796	0.041747	-0.238188	0.056668	85.032776	9.742047	1.260743	3.141089	22.029744	-14.066238	-15.320858	41.432889	7.922661	20.761981	15.865435	31.390799	6.597982	25.738118	23.934269	13.921006	-4.174885	51.771743	44.191334	10.082556	-7.998393	53.945962	49.790503
-0.385000	-0.845308	-4.283240	94.249796	0.046764	-0.236495	0.061873	85.689321	10.791068	1.500538	2.260431	22.832687	-13.855076	-14.860733	42.648868	8.257315	20.548085	15.574033	32.800456	6.739141	25.329985	24.140481	14.532027	-4.217559	52.522448	45.589140	10.852838	-8.094432	55.681336	50.740882
-0.375000	-0.845308	-4.283240	94.249796	0.051953	-0.235080	0.067208	86.463607	11.799135	1.786736	1.467449	23.662358	-13.671490	-14.488098	43.729140	8.603284	20.439918	15.361034	34.053525	6.885749	25.028472	24.403706	15.073814	-4.264426	53.348420	46.986630	11.499124	-8.281462	57.560998	51.635198
-0.365000	-0.845308	-4.283240	94.249796	0.057289	-0.233934	0.072619	87.316399	12.744866	2.159714	0.733197	24.517403	-13.495117	-14.161288	44.660831	8.953571	20.423367	15.222429	35.164190	7.035245	24.801947	24.708146	15.622711	-4.315774	54.136461	48.353205	12.079065	-8.557827	59.473328	52.450851
-0.355000	-0.845308	-4.283240	94.249796	0.062762	-0.233042	0.078066	88.217241	13.613469	2.649003	0.026966	25.398919	-13.304041	-13.838543	45.446523	9.298831	20.477880	15.148986	36.161764	7.182402	24.611862	25.035239	16.227442	-4.375567	54.819705	49.636976	12.635776	-8.895122	61.323653	53.177369
-0.345000	-0.845308	-4.283240	94.249796	0.068371	-0.232395	0.083525	89.149546	14.402217	3.264544	-0.673385	26.311828	-13.084082	-13.494325	46.105237	9.627771	20.578377	15.132221	37.079324	7.321807	24.424820	25.372796	16.893420	-4.448565	55.393698	50.789380	13.199484	-9.248651	63.051214	53.805038
-0.335000	-0.845308	-4.283240	94.249796	0.074102	-0.231993	0.088975	90.111707	15.120573	3.994975	-1.372625	27.259095	-12.834197	-13.127954	46.662384	9.929926	20.702376	15.169162	37.937925	7.449474	24.225678	25.719186	17.586819	-4.536086	55.901050	51.785121	13.790075	-9.575576	64.630759	54.319613
-0.325000	-0.845308	-4.283240	94.249796	0.079916	-0.231844	0.094382	91.113613	15.785163	4.813524	-2.057219	28.235285	-12.565983	-12.759833	47.135544	10.198806	20.838172	15.263455	38.734597	7.563257	24.025212	26.082515	18.253034	-4.633601	56.399266	52.629377	14.417339	-9.851320	66.057347	54.706202
-0.315000	-0.845308	-4.283240	94.249796	0.085747	-0.231959	0.099703	92.170089	16.413203	5.689098	-2.703488	29.226139	-12.297832	-12.417881	47.526178	10.433244	20.988780	15.422488	39.442796	7.662477	23.855942	26.476926	18.839679	-4.732086	56.932111	53.352864	15.079038	-10.076089	67.326798	54.959392
-0.305000	-0.845308	-4.283240	94.249796	0.091523	-0.232348	0.104892	93.293629	17.017894	6.598005	-3.289303	30.214095	-12.046566	-12.122309	47.822322	10.636598	21.168491	15.652266	40.026378	7.747547	23.755995	26.918066	19.315682	-4.822658	57.515317	53.997269	15.759034	-10.268583	68.425513	55.092608
-0.295000	-0.845308	-4.283240	94.249796	0.097192	-0.233007	0.109924	94.487656	17.606514	7.531117	-3.801607	31.183748	-11.820691	-11.877171	48.009013	10.814919	21.393352	15.952646	40.458469	7.820042	23.749358	27.418616	19.681262	-4.901581	58.135513	54.595286	16.428151	-10.451184	69.334126	55.139872
-0.285000	-0.845308	-4.283240	94.249796	0.102719	-0.233921	0.114782	95.741024	18.180018	8.493299	-4.236521	32.122885	-11.618533	-11.672210	48.078945	10.975093	21.670864	16.315194	40.734217	7.882819	23.834003	27.984152	19.966312	-4.972127	58.757258	55.154217	17.049814	-10.636215	70.039863	55.147623
-0.275000	-0.845308	-4.283240	94.249796	0.108079	-0.235065	0.119451	97.025875	18.733442	9.496028	-4.595167	33.020824	-11.431463	-11.491656	48.037820	11.123126	21.994634	16.724570	40.872379	7.939432	23.984171	28.610132	20.217763	-5.041767	59.335331	55.653520	17.590966	-10.821733	70.548509	55.160054
-0.265000	-0.845308	-4.283240	94.249796	0.113239	-0.236410	0.123905	98.301893	19.257822	10.547978	-4.880619	33.868465	-11.249461	-11.323138	47.903448	11.262484	22.346501	17.162538	40.908268	7.992728	24.164230	29.281019	20.480613	-5.116455	59.830637	56.059534	18.035475	-10.997868	70.888527	55.204968
-0.255000	-0.845308	-4.283240	94.249796	0.118162	-0.237932	0.128117	99.527186	19.744119	11.648964	-5.098202	34.661103	-11.065661	-11.161659	47.700536	11.392839	22.704484	17.612490	40.883191	8.043445	24.345697	29.971687	20.780661	-5.195916	60.225652	56.348680	18.393446	-11.156954	71.105377	55.286316
-0.245000	-0.845308	-4.283240	94.249796	0.122823	-0.239617	0.132068	100.670922	20.187688	12.789271	-5.256870	35.400657	-10.878128	-11.008290	47.453457	11.510055	23.052389	18.062782	40.834022	8.089945	24.519172	30.650619	21.116767	-5.273116	60.532642	56.523907	18.699675	-11.299229	71.249992	55.385437
-0.235000	-0.845308	-4.283240	94.249796	0.127220	-0.241455	0.135761	101.720727	20.590554	13.951985	-5.368281	36.093965	-10.689057	-10.866427	47.179307	11.607933	23.386484	18.508581	40.785202	8.129406	24.696808	31.284801	21.465758	-5.338170	60.789560	56.614377	19.000178	-11.431163	71.367527	55.469380
-0.225000	-0.845308	-4.283240	94.249796	0.131360	-0.243433	0.139208	102.681411	20.959961	15.114930	-5.443022	36.747659	-10.502672	-10.738749	46.884692	11.681219	23.715825	18.952350	40.745923	8.159688	24.905357	31.846511	21.796803	-5.383957	61.044667	56.660931	19.333382	-11.559557	71.490409	55.503728
-0.215000	-0.845308	-4.283240	94.249796	0.135245	-0.245534	0.142414	103.567502	21.304227	16.251657	-5.486780	37.363396	-10.323245	-10.626379	46.569615	11.728521	24.055583	19.402497	40.714925	8.180711	25.173325	32.320703	22.088230	-5.409964	61.337424	56.698657	19.715899	-11.686634	71.636656	55.466858
-0.205000	-0.845308	-4.283240	94.249796	0.138859	-0.247735	0.145372	104.394937	21.628582	17.333947	-5.499866	37.936892	-10.154209	-10.529856	46.237963	11.753834	24.417093	19.869605	40.691619	8.194646	25.518313	32.709742	22.339838	-5.422470	61.685038	56.746673	20.139412	-11.809095	71.812466	55.360754
-0.195000	-0.845308	-4.283240	94.249796	0.142177	-0.250011	0.148068	105.175610	21.933096	18.337518	-5.480985	38.460882	-9.998710	-10.450484	45.908471	11.766152	24.801429	20.361439	40.687425	8.205004	25.941056	33.032466	22.575983	-5.431540	62.080556	56.807938	20.578209	-11.920710	72.017248	55.212927
-0.185000	-0.845308	-4.283240	94.249796	0.145179	-0.252339	0.150492	105.914990	22.213105	19.248889	-5.433020	38.928920	-9.861174	-10.390800	45.618261	11.777579	25.201293	20.879592	40.729930	8.215184	26.429320	33.317243	22.837943	-5.446673	62.502354	56.875907	21.001584	-12.015959	72.249230	55.067539
-0.175000	-0.845308	-4.283240	94.249796	0.147872	-0.254694	0.152651	106.611310	22.461272	20.068935	-5.367276	39.336808	-9.748637	-10.353820	45.416058	11.800737	25.609211	21.419740	40.857092	8.227074	26.968462	33.591704	23.168517	-5.473174	62.929522	56.942908	21.384708	-12.092156	72.510004	54.969533
-0.165000	-0.845308	-4.283240	94.249796	0.150281	-0.257041	0.154566	107.255682	22.670241	20.810228	-5.303780	39.681331	-9.670353	-10.341642	45.349710	11.846115	26.024470	21.974583	41.105270	8.240231	27.550896	33.873735	23.596233	-5.510593	63.354986	57.006193	21.714946	-12.148971	72.806226	54.948941
-0.155000	-0.845308	-4.283240	94.249796	0.152440	-0.259330	0.156263	107.834001	22.835358	21.489365	-5.267459	39.958964	-9.635140	-10.354295	45.455973	11.919799	26.452516	22.536854	41.497996	8.251978	28.178303	34.168241	24.127508	-5.553551	63.789740	57.069778	21.994515	-12.186309	73.147033	55.011829
-0.145000	-0.845308	-4.283240	94.249796	0.154378	-0.261503	0.157765	108.331159	22.957096	22.118448	-5.282010	40.167114	-9.647710	-10.389569	45.757703	12.022062	26.897142	23.100557	42.040888	8.258456	28.856328	34.471740	24.750794	-5.594360	64.256557	57.142880	22.241542	-12.202545	73.538082	55.141003
